<control>


default_path=~/linuxaudio/NDK/samples/kicks/kd14bop/snare_on/cls\


<global>
loop_mode=one_shot

<group> //Begin Group for entire instrument
key=11



<region>
sample=kd14wbop_cls_001.wav
lovel=0
hivel=1
amp_velcurve_1=1

<region>
sample=kd14wbop_cls_002.wav
lovel=2
hivel=2
amp_velcurve_2=1

<region>
sample=kd14wbop_cls_003.wav
lovel=3
hivel=3
amp_velcurve_3=1

<region>
sample=kd14wbop_cls_004x.wav
lovel=4
hivel=5
amp_velcurve_5=1

<region>
sample=kd14wbop_cls_005.wav
lovel=6
hivel=6
amp_velcurve_6=1

<region>
sample=kd14wbop_cls_006.wav
lovel=7
hivel=8
amp_velcurve_8=1

<region>
sample=kd14wbop_cls_007.wav
lovel=9
hivel=9
amp_velcurve_9=1

<region>
sample=kd14wbop_cls_008.wav
lovel=10
hivel=11
amp_velcurve_11=1

<region>
sample=kd14wbop_cls_009.wav
lovel=12
hivel=13
amp_velcurve_13=1

<region>
sample=kd14wbop_cls_010.wav
lovel=14
hivel=14
amp_velcurve_14=1

<region>
sample=kd14wbop_cls_011x.wav
lovel=15
hivel=16
amp_velcurve_16=1

<region>
sample=kd14wbop_cls_012.wav
lovel=17
hivel=17
amp_velcurve_17=1

<region>
sample=kd14wbop_cls_013.wav
lovel=18
hivel=19
amp_velcurve_19=1

<region>
sample=kd14wbop_cls_014.wav
lovel=20
hivel=20
amp_velcurve_20=1

<region>
sample=kd14wbop_cls_015x.wav
lovel=21
hivel=22
amp_velcurve_22=1

<region>
sample=kd14wbop_cls_016x.wav
lovel=23
hivel=24
amp_velcurve_24=1

<region>
sample=kd14wbop_cls_017x.wav
lovel=25
hivel=25
amp_velcurve_25=1

<region>
sample=kd14wbop_cls_018x.wav
lovel=26
hivel=27
amp_velcurve_27=1

<region>
sample=kd14wbop_cls_019x.wav
lovel=28
hivel=28
amp_velcurve_28=1

<region>
sample=kd14wbop_cls_020x.wav
lovel=29
hivel=30
amp_velcurve_30=1

<region>
sample=kd14wbop_cls_021x.wav
lovel=31
hivel=31
amp_velcurve_31=1

<region>
sample=kd14wbop_cls_022x.wav
lovel=32
hivel=33
amp_velcurve_33=1

<region>
sample=kd14wbop_cls_023x.wav
lovel=34
hivel=35
amp_velcurve_35=1

<region>
sample=kd14wbop_cls_024x.wav
lovel=36
hivel=36
amp_velcurve_36=1

<region>
sample=kd14wbop_cls_025x.wav
lovel=37
hivel=38
amp_velcurve_38=1

<region>
sample=kd14wbop_cls_026x.wav
lovel=39
hivel=39
amp_velcurve_39=1

<region>
sample=kd14wbop_cls_027x.wav
lovel=40
hivel=41
amp_velcurve_41=1

<region>
sample=kd14wbop_cls_028x.wav
lovel=42
hivel=42
amp_velcurve_42=1

<region>
sample=kd14wbop_cls_029x.wav
lovel=43
hivel=44
amp_velcurve_44=1

<region>
sample=kd14wbop_cls_030x.wav
lovel=45
hivel=46
amp_velcurve_46=1

<region>
sample=kd14wbop_cls_031.wav
lovel=47
hivel=47
amp_velcurve_47=1

<region>
sample=kd14wbop_cls_032.wav
lovel=48
hivel=49
amp_velcurve_49=1

<region>
sample=kd14wbop_cls_033x.wav
lovel=50
hivel=50
amp_velcurve_50=1

<region>
sample=kd14wbop_cls_034.wav
lovel=51
hivel=52
amp_velcurve_52=1

<region>
sample=kd14wbop_cls_035.wav
lovel=53
hivel=53
amp_velcurve_53=1

<region>
sample=kd14wbop_cls_036x.wav
lovel=54
hivel=55
amp_velcurve_55=1

<region>
sample=kd14wbop_cls_037x.wav
lovel=56
hivel=57
amp_velcurve_57=1

<region>
sample=kd14wbop_cls_038.wav
lovel=58
hivel=58
amp_velcurve_58=1

<region>
sample=kd14wbop_cls_039x.wav
lovel=59
hivel=60
amp_velcurve_60=1

<region>
sample=kd14wbop_cls_040.wav
lovel=61
hivel=61
amp_velcurve_61=1

<region>
sample=kd14wbop_cls_041x.wav
lovel=62
hivel=63
amp_velcurve_63=1

<region>
sample=kd14wbop_cls_042.wav
lovel=64
hivel=64
amp_velcurve_64=1

<region>
sample=kd14wbop_cls_043.wav
lovel=65
hivel=66
amp_velcurve_66=1

<region>
sample=kd14wbop_cls_044.wav
lovel=67
hivel=67
amp_velcurve_67=1

<region>
sample=kd14wbop_cls_045.wav
lovel=68
hivel=69
amp_velcurve_69=1

<region>
sample=kd14wbop_cls_046.wav
lovel=70
hivel=71
amp_velcurve_71=1

<region>
sample=kd14wbop_cls_047.wav
lovel=72
hivel=72
amp_velcurve_72=1

<region>
sample=kd14wbop_cls_048.wav
lovel=73
hivel=74
amp_velcurve_74=1

<region>
sample=kd14wbop_cls_049.wav
lovel=75
hivel=75
amp_velcurve_75=1

<region>
sample=kd14wbop_cls_050.wav
lovel=76
hivel=77
amp_velcurve_77=1

<region>
sample=kd14wbop_cls_051.wav
lovel=78
hivel=78
amp_velcurve_78=1

<region>
sample=kd14wbop_cls_052.wav
lovel=79
hivel=80
amp_velcurve_80=1

<region>
sample=kd14wbop_cls_053x.wav
lovel=81
hivel=82
amp_velcurve_82=1

<region>
sample=kd14wbop_cls_054.wav
lovel=83
hivel=83
amp_velcurve_83=1

<region>
sample=kd14wbop_cls_055x.wav
lovel=84
hivel=85
amp_velcurve_85=1

<region>
sample=kd14wbop_cls_056.wav
lovel=86
hivel=86
amp_velcurve_86=1

<region>
sample=kd14wbop_cls_057.wav
lovel=87
hivel=88
amp_velcurve_88=1

<region>
sample=kd14wbop_cls_058.wav
lovel=89
hivel=89
amp_velcurve_89=1

<region>
sample=kd14wbop_cls_059.wav
lovel=90
hivel=91
amp_velcurve_91=1

<region>
sample=kd14wbop_cls_060.wav
lovel=92
hivel=93
amp_velcurve_93=1

<region>
sample=kd14wbop_cls_061x.wav
lovel=94
hivel=94
amp_velcurve_94=1

<region>
sample=kd14wbop_cls_062x.wav
lovel=95
hivel=96
amp_velcurve_96=1

<region>
sample=kd14wbop_cls_063.wav
lovel=97
hivel=97
amp_velcurve_97=1

<region>
sample=kd14wbop_cls_064.wav
lovel=98
hivel=99
amp_velcurve_99=1

<region>
sample=kd14wbop_cls_065x.wav
lovel=100
hivel=100
amp_velcurve_100=1

<region>
sample=kd14wbop_cls_066x.wav
lovel=101
hivel=102
amp_velcurve_102=1

<region>
sample=kd14wbop_cls_067.wav
lovel=103
hivel=104
amp_velcurve_104=1

<region>
sample=kd14wbop_cls_068.wav
lovel=105
hivel=105
amp_velcurve_105=1

<region>
sample=kd14wbop_cls_069x.wav
lovel=106
hivel=107
amp_velcurve_107=1

<region>
sample=kd14wbop_cls_070x.wav
lovel=108
hivel=108
amp_velcurve_108=1

<region>
sample=kd14wbop_cls_071x.wav
lovel=109
hivel=110
amp_velcurve_110=1

<region>
sample=kd14wbop_cls_072x.wav
lovel=111
hivel=111
amp_velcurve_111=1

<region>
sample=kd14wbop_cls_073x.wav
lovel=112
hivel=113
amp_velcurve_113=1

<region>
sample=kd14wbop_cls_074.wav
lovel=114
hivel=115
amp_velcurve_115=1

<region>
sample=kd14wbop_cls_075x.wav
lovel=116
hivel=116
amp_velcurve_116=1

<region>
sample=kd14wbop_cls_076.wav
lovel=117
hivel=118
amp_velcurve_118=1

<region>
sample=kd14wbop_cls_077.wav
lovel=119
hivel=119
amp_velcurve_119=1

<region>
sample=kd14wbop_cls_078x.wav
lovel=120
hivel=121
amp_velcurve_121=1

<region>
sample=kd14wbop_cls_079x.wav
lovel=122
hivel=122
amp_velcurve_122=1

<region>
sample=kd14wbop_cls_080.wav
lovel=123
hivel=124
amp_velcurve_124=1

<region>
sample=kd14wbop_cls_081.wav
lovel=125
hivel=127
amp_velcurve_127=1

